# xmcd
#
# Track frame offsets: 
#        150
#        12653
#        31620
#        51469
#        67467
#        84283
#        103151
#        123378
#        142039
#        160003
#        178944
#        197563
#        216704
#        237579
#        254877
#        272555
#
# Disc length: 4035 seconds
#
# Revision: 0
# Processed by: cddbd v1.5.2PL0 Copyright (c) Steve Scherf et al.
# Submitted via: ExactAudioCopyFreeDBPlugin 1.0
#
DISCID=000fc110
DTITLE=TMK aka piekielny R-Ice - Kilka kartek LP
DYEAR=2012
DGENRE=Rap
TTITLE0=Intro (ft. Dj Peksi)
TTITLE1=Upijam się (ft. Ramzi)
TTITLE2=To tylko my
TTITLE3=Miałem sen (ft. Dj Cider)
TTITLE4=Wypij za Głogów
TTITLE5=Kołysz się ze mną (ft. Raca, Planet ANM, Drobny)
TTITLE6=Siła (ft. Shot, Rover, dominika Sroczyńska)
TTITLE7=Czemu nie umiem latać 2
TTITLE8=Oddychaj (ft. ZdunO)
TTITLE9=Dziś się bawimy (ft. Rover)
TTITLE10=Światła na ul. Piłsudskiego
TTITLE11=Siadała w oknie
TTITLE12=Za późno
TTITLE13=Serce na dłoni (ft. Blizna, Dominika Sroczyńska)
TTITLE14=Wszscy mnie znają
TTITLE15=Kilka kartek (ft. OzM, DworniDWK, Demon, Adiss, NTW, FloWSH, 
TTITLE15=Kosa, Rybson, DasT, Kagye, East, AnD, Dj Peksi)
EXTD=
EXTT0=
EXTT1=
EXTT2=
EXTT3=
EXTT4=
EXTT5=
EXTT6=
EXTT7=
EXTT8=
EXTT9=
EXTT10=
EXTT11=
EXTT12=
EXTT13=
EXTT14=
EXTT15=
PLAYORDER=
